<?xml version="1.0" encoding="utf-8"?>
<!-- Generator: Adobe Illustrator 26.5.1, SVG Export Plug-In . SVG Version: 6.00 Build 0)  -->
<svg version="1.1" id="Layer_1" xmlns="http://www.w3.org/2000/svg" xmlns:xlink="http://www.w3.org/1999/xlink" x="0px" y="0px"
	 viewBox="0 0 275 82.9" style="enable-background:new 0 0 275 82.9;" xml:space="preserve">
<g>
	<path fill="#FFFFFF" d="M141.8,52.6c-0.4,4.1-2.6,6.9-6.4,8.4c-2.9,1.1-5.7,1-5.8,1c-7.4,0-12.4-4.9-13-12.9h31.8v-0.4
		c0-0.2,0-0.5,0-0.7c0-0.3,0-0.5,0-0.8v-0.4h-0.1c-0.2-11.7-8.1-20.1-19.1-20.1c-10.9,0-19.1,8.6-19.1,20.5s8.2,20.5,19.4,20.5
		c17.9,0,18.8-14.9,18.8-15.1l0-0.4h-6.7L141.8,52.6L141.8,52.6z M116.9,43.4c1.3-7,5.8-11,12.5-11c6.7,0,11.1,3.9,12.4,11H116.9z"
		/>
	<path fill="#FFFFFF" d="M159.2,10.6H153v56.3h6.2V10.6z"/>
	<path fill="#FFFFFF" d="M199.3,61.5c-0.9,0-2.1-0.3-2.1-3v-16c0-10.2-5.6-15.5-16.2-15.5c-4.9,0-9,1.6-12,4.6
		c-2.7,2.7-4.2,6.3-4.2,10.1v0.8h6.2v-0.8c0-5.3,4.1-8.9,10.1-8.9c6,0,10,2.9,10,6.8c0,3.2-4.5,3.7-9.8,4.2c-8,0.9-18,2-18,12.9
		c0,6.4,5.9,11.1,14.1,11.1c9.4,0,12.5-4.5,13.7-6.7c0.2,2,1.2,6.3,6.4,6.3c1,0,1.7-0.2,2.7-0.5c0.2-0.1,0.5-0.1,0.8-0.2l0.3-0.1
		v-5.4l-0.5,0.1C200.3,61.5,200,61.5,199.3,61.5L199.3,61.5z M191.1,46.9v3.2c0,4.7-4.3,11.7-13.6,11.7c-5.2,0-7.9-1.8-8-5.5
		c-0.2-5.8,6.3-6.5,12.6-7.2C185.7,48.6,189.1,48.2,191.1,46.9L191.1,46.9z"/>
	<path fill="#FFFFFF" d="M223.1,26.7c-5.8,0-9.8,2.2-12.2,6.7v-5.9h-6.2v39.4h6.2V47.8c0-9.7,4.2-14.8,12.2-14.8c0.8,0,1.6,0.1,2.3,0.2
		l0.4,0.1v-6.4l-0.5,0C224.6,26.8,223.9,26.7,223.1,26.7L223.1,26.7z"/>
	<path fill="#FFFFFF" d="M262.2,61.5c-0.9,0-2.1-0.3-2.1-3v-16c0-10.2-5.6-15.5-16.2-15.5c-4.9,0-9,1.6-12,4.6
		c-2.7,2.7-4.2,6.3-4.2,10.1v0.8h6.2v-0.8c0-5.3,4.1-8.9,10.1-8.9c6,0,10,2.9,10,6.8c0,3.2-4.5,3.7-9.8,4.2c-8,0.9-18,2-18,12.9
		c0,6.4,5.9,11.1,14.1,11.1c9.4,0,12.5-4.5,13.7-6.7c0.2,2,1.2,6.3,6.4,6.3c1,0,1.7-0.2,2.7-0.5c0.2-0.1,0.5-0.1,0.8-0.2l0.3-0.1
		v-5.4l-0.5,0.1C263.2,61.5,262.9,61.5,262.2,61.5L262.2,61.5z M254,46.9v3.2c0,4.7-4.3,11.7-13.6,11.7c-5.2,0-7.9-1.8-8-5.5
		c-0.2-5.8,6.3-6.5,12.6-7.2C248.6,48.6,252,48.2,254,46.9L254,46.9z"/>
	<path fill="#FFFFFF" d="M80.7,53.4c1.2,0,2.2-1,2.2-2.2c0-1.2-1-2.2-2.2-2.2c-1.2,0-2.2,1-2.2,2.2C78.5,52.5,79.5,53.4,80.7,53.4z"/>
	<path fill="#FFFFFF" d="M77.4,56.7c1.2,0,2.2-1,2.2-2.2c0-1.2-1-2.2-2.2-2.2c-1.2,0-2.2,1-2.2,2.2C75.3,55.7,76.2,56.7,77.4,56.7z"/>
	<path fill="#FFFFFF" d="M74.2,60c1.2,0,2.2-1,2.2-2.2c0-1.2-1-2.2-2.2-2.2c-1.2,0-2.2,1-2.2,2.2C72,59,73,60,74.2,60z"/>
	<path fill="#FFFFFF" d="M70.9,63.3c1.2,0,2.2-1,2.2-2.2c0-1.2-1-2.2-2.2-2.2c-1.2,0-2.2,1-2.2,2.2C68.7,62.3,69.7,63.3,70.9,63.3z"/>
	<path fill="#FFFFFF" d="M67.6,66.5c1.2,0,2.2-1,2.2-2.2c0-1.2-1-2.2-2.2-2.2c-1.2,0-2.2,1-2.2,2.2C65.4,65.6,66.4,66.5,67.6,66.5z"/>
	<path fill="#FFFFFF" d="M64.3,69.8c1.2,0,2.2-1,2.2-2.2c0-1.2-1-2.2-2.2-2.2c-1.2,0-2.2,1-2.2,2.2C62.2,68.8,63.1,69.8,64.3,69.8z"/>
	<path fill="#FFFFFF" d="M61.1,73.1c1.2,0,2.2-1,2.2-2.2c0-1.2-1-2.2-2.2-2.2c-1.2,0-2.2,1-2.2,2.2C58.9,72.1,59.9,73.1,61.1,73.1z"/>
	<path fill="#FFFFFF" d="M57.8,76.3c1.2,0,2.2-1,2.2-2.2c0-1.2-1-2.2-2.2-2.2c-1.2,0-2.2,1-2.2,2.2C55.6,75.4,56.6,76.3,57.8,76.3z"/>
	<path fill="#FFFFFF" d="M54.5,79.6c1.2,0,2.2-1,2.2-2.2c0-1.2-1-2.2-2.2-2.2c-1.2,0-2.2,1-2.2,2.2C52.3,78.6,53.3,79.6,54.5,79.6z"/>
	<path fill="#FFFFFF" d="M51.3,82.9c1.2,0,2.2-1,2.2-2.2c0-1.2-1-2.2-2.2-2.2c-1.2,0-2.2,1-2.2,2.2C49.1,81.9,50.1,82.9,51.3,82.9z"/>
	<path fill="#FFFFFF" d="M80.7,46.9c1.2,0,2.2-1,2.2-2.2c0-1.2-1-2.2-2.2-2.2c-1.2,0-2.2,1-2.2,2.2C78.5,45.9,79.5,46.9,80.7,46.9z"/>
	<path fill="#FFFFFF" d="M77.4,50.2c1.2,0,2.2-1,2.2-2.2c0-1.2-1-2.2-2.2-2.2c-1.2,0-2.2,1-2.2,2.2C75.3,49.2,76.2,50.2,77.4,50.2z"/>
	<path fill="#FFFFFF" d="M74.2,53.4c1.2,0,2.2-1,2.2-2.2c0-1.2-1-2.2-2.2-2.2c-1.2,0-2.2,1-2.2,2.2C72,52.5,73,53.4,74.2,53.4z"/>
	<path fill="#FFFFFF" d="M70.9,56.7c1.2,0,2.2-1,2.2-2.2c0-1.2-1-2.2-2.2-2.2c-1.2,0-2.2,1-2.2,2.2C68.7,55.7,69.7,56.7,70.9,56.7z"/>
	<path fill="#FFFFFF" d="M67.6,60c1.2,0,2.2-1,2.2-2.2c0-1.2-1-2.2-2.2-2.2c-1.2,0-2.2,1-2.2,2.2C65.4,59,66.4,60,67.6,60z"/>
	<path fill="#FFFFFF" d="M64.3,63.3c1.2,0,2.2-1,2.2-2.2c0-1.2-1-2.2-2.2-2.2c-1.2,0-2.2,1-2.2,2.2C62.2,62.3,63.1,63.3,64.3,63.3z"/>
	<path fill="#FFFFFF" d="M61.1,66.5c1.2,0,2.2-1,2.2-2.2c0-1.2-1-2.2-2.2-2.2c-1.2,0-2.2,1-2.2,2.2C58.9,65.6,59.9,66.5,61.1,66.5z"/>
	<path fill="#FFFFFF" d="M57.8,69.8c1.2,0,2.2-1,2.2-2.2c0-1.2-1-2.2-2.2-2.2c-1.2,0-2.2,1-2.2,2.2C55.6,68.8,56.6,69.8,57.8,69.8z"/>
	<path fill="#FFFFFF" d="M54.5,73.1c1.2,0,2.2-1,2.2-2.2c0-1.2-1-2.2-2.2-2.2c-1.2,0-2.2,1-2.2,2.2C52.3,72.1,53.3,73.1,54.5,73.1z"/>
	<path fill="#FFFFFF" d="M51.3,76.3c1.2,0,2.2-1,2.2-2.2c0-1.2-1-2.2-2.2-2.2c-1.2,0-2.2,1-2.2,2.2C49.1,75.4,50.1,76.3,51.3,76.3z"/>
	<path fill="#FFFFFF" d="M48,79.6c1.2,0,2.2-1,2.2-2.2c0-1.2-1-2.2-2.2-2.2c-1.2,0-2.2,1-2.2,2.2C45.8,78.6,46.8,79.6,48,79.6z"/>
	<path fill="#FFFFFF" d="M44.7,82.9c1.2,0,2.2-1,2.2-2.2c0-1.2-1-2.2-2.2-2.2c-1.2,0-2.2,1-2.2,2.2C42.5,81.9,43.5,82.9,44.7,82.9z"/>
	<path fill="#FFFFFF" d="M80.7,40.4c1.2,0,2.2-1,2.2-2.2c0-1.2-1-2.2-2.2-2.2c-1.2,0-2.2,1-2.2,2.2C78.5,39.4,79.5,40.4,80.7,40.4z"/>
	<path fill="#FFFFFF" d="M77.4,43.6c1.2,0,2.2-1,2.2-2.2c0-1.2-1-2.2-2.2-2.2c-1.2,0-2.2,1-2.2,2.2C75.3,42.6,76.2,43.6,77.4,43.6z"/>
	<path fill="#FFFFFF" d="M74.2,46.9c1.2,0,2.2-1,2.2-2.2c0-1.2-1-2.2-2.2-2.2c-1.2,0-2.2,1-2.2,2.2C72,45.9,73,46.9,74.2,46.9z"/>
	<path fill="#FFFFFF" d="M44.7,76.3c1.2,0,2.2-1,2.2-2.2c0-1.2-1-2.2-2.2-2.2c-1.2,0-2.2,1-2.2,2.2C42.5,75.4,43.5,76.3,44.7,76.3z"/>
	<path fill="#FFFFFF" d="M41.4,79.6c1.2,0,2.2-1,2.2-2.2c0-1.2-1-2.2-2.2-2.2c-1.2,0-2.2,1-2.2,2.2C39.3,78.6,40.2,79.6,41.4,79.6z"/>
	<path fill="#FFFFFF" d="M38.2,82.9c1.2,0,2.2-1,2.2-2.2c0-1.2-1-2.2-2.2-2.2c-1.2,0-2.2,1-2.2,2.2C36,81.9,37,82.9,38.2,82.9z"/>
	<path fill="#FFFFFF" d="M80.7,33.8c1.2,0,2.2-1,2.2-2.2c0-1.2-1-2.2-2.2-2.2c-1.2,0-2.2,1-2.2,2.2C78.5,32.8,79.5,33.8,80.7,33.8z"/>
	<path fill="#FFFFFF" d="M77.4,37.1c1.2,0,2.2-1,2.2-2.2c0-1.2-1-2.2-2.2-2.2c-1.2,0-2.2,1-2.2,2.2C75.3,36.1,76.2,37.1,77.4,37.1z"/>
	<path fill="#FFFFFF" d="M74.2,40.4c1.2,0,2.2-1,2.2-2.2c0-1.2-1-2.2-2.2-2.2C73,36,72,37,72,38.2C72,39.4,73,40.4,74.2,40.4z"/>
	<path fill="#FFFFFF" d="M38.2,76.3c1.2,0,2.2-1,2.2-2.2c0-1.2-1-2.2-2.2-2.2C37,72,36,73,36,74.2C36,75.4,37,76.3,38.2,76.3z"/>
	<path fill="#FFFFFF" d="M34.9,79.6c1.2,0,2.2-1,2.2-2.2c0-1.2-1-2.2-2.2-2.2c-1.2,0-2.2,1-2.2,2.2C32.7,78.6,33.7,79.6,34.9,79.6z"/>
	<path fill="#FFFFFF" d="M31.6,82.9c1.2,0,2.2-1,2.2-2.2c0-1.2-1-2.2-2.2-2.2c-1.2,0-2.2,1-2.2,2.2C29.4,81.9,30.4,82.9,31.6,82.9z"/>
	<path fill="#FFFFFF" d="M77.4,30.5c1.2,0,2.2-1,2.2-2.2s-1-2.2-2.2-2.2c-1.2,0-2.2,1-2.2,2.2S76.2,30.5,77.4,30.5z"/>
	<path fill="#FFFFFF" d="M74.2,33.8c1.2,0,2.2-1,2.2-2.2c0-1.2-1-2.2-2.2-2.2c-1.2,0-2.2,1-2.2,2.2C72,32.8,73,33.8,74.2,33.8z"/>
	<path fill="#FFFFFF" d="M31.6,76.3c1.2,0,2.2-1,2.2-2.2c0-1.2-1-2.2-2.2-2.2c-1.2,0-2.2,1-2.2,2.2C29.4,75.4,30.4,76.3,31.6,76.3z"/>
	<path fill="#FFFFFF" d="M28.4,79.6c1.2,0,2.2-1,2.2-2.2c0-1.2-1-2.2-2.2-2.2s-2.2,1-2.2,2.2C26.2,78.6,27.2,79.6,28.4,79.6z"/>
	<path fill="#FFFFFF" d="M74.2,27.3c1.2,0,2.2-1,2.2-2.2c0-1.2-1-2.2-2.2-2.2c-1.2,0-2.2,1-2.2,2.2C72,26.3,73,27.3,74.2,27.3z"/>
	<path fill="#FFFFFF" d="M70.9,30.5c1.2,0,2.2-1,2.2-2.2s-1-2.2-2.2-2.2c-1.2,0-2.2,1-2.2,2.2S69.7,30.5,70.9,30.5z"/>
	<path fill="#FFFFFF" d="M28.4,73.1c1.2,0,2.2-1,2.2-2.2c0-1.2-1-2.2-2.2-2.2s-2.2,1-2.2,2.2C26.2,72.1,27.2,73.1,28.4,73.1z"/>
	<path fill="#FFFFFF" d="M25.1,76.3c1.2,0,2.2-1,2.2-2.2c0-1.2-1-2.2-2.2-2.2c-1.2,0-2.2,1-2.2,2.2C22.9,75.4,23.9,76.3,25.1,76.3z"/>
	<path fill="#FFFFFF" d="M70.9,24c1.2,0,2.2-1,2.2-2.2c0-1.2-1-2.2-2.2-2.2c-1.2,0-2.2,1-2.2,2.2C68.7,23,69.7,24,70.9,24z"/>
	<path fill="#FFFFFF" d="M67.6,27.3c1.2,0,2.2-1,2.2-2.2c0-1.2-1-2.2-2.2-2.2c-1.2,0-2.2,1-2.2,2.2C65.4,26.3,66.4,27.3,67.6,27.3z"/>
	<path fill="#FFFFFF" d="M25.1,69.8c1.2,0,2.2-1,2.2-2.2c0-1.2-1-2.2-2.2-2.2c-1.2,0-2.2,1-2.2,2.2C22.9,68.8,23.9,69.8,25.1,69.8z"/>
	<path fill="#FFFFFF" d="M21.8,73.1c1.2,0,2.2-1,2.2-2.2c0-1.2-1-2.2-2.2-2.2c-1.2,0-2.2,1-2.2,2.2C19.6,72.1,20.6,73.1,21.8,73.1z"/>
	<path fill="#FFFFFF" d="M67.6,20.7c1.2,0,2.2-1,2.2-2.2c0-1.2-1-2.2-2.2-2.2c-1.2,0-2.2,1-2.2,2.2C65.4,19.7,66.4,20.7,67.6,20.7z"/>
	<path fill="#FFFFFF" d="M64.3,24c1.2,0,2.2-1,2.2-2.2c0-1.2-1-2.2-2.2-2.2c-1.2,0-2.2,1-2.2,2.2C62.2,23,63.1,24,64.3,24z"/>
	<path fill="#FFFFFF" d="M21.8,66.5c1.2,0,2.2-1,2.2-2.2c0-1.2-1-2.2-2.2-2.2c-1.2,0-2.2,1-2.2,2.2C19.6,65.6,20.6,66.5,21.8,66.5z"/>
	<path fill="#FFFFFF" d="M18.5,69.8c1.2,0,2.2-1,2.2-2.2c0-1.2-1-2.2-2.2-2.2c-1.2,0-2.2,1-2.2,2.2C16.4,68.8,17.3,69.8,18.5,69.8z"/>
	<path fill="#FFFFFF" d="M64.3,17.5c1.2,0,2.2-1,2.2-2.2s-1-2.2-2.2-2.2c-1.2,0-2.2,1-2.2,2.2S63.1,17.5,64.3,17.5z"/>
	<path fill="#FFFFFF" d="M61.1,20.7c1.2,0,2.2-1,2.2-2.2c0-1.2-1-2.2-2.2-2.2c-1.2,0-2.2,1-2.2,2.2C58.9,19.7,59.9,20.7,61.1,20.7z"/>
	<path fill="#FFFFFF" d="M18.5,63.3c1.2,0,2.2-1,2.2-2.2c0-1.2-1-2.2-2.2-2.2c-1.2,0-2.2,1-2.2,2.2C16.4,62.3,17.3,63.3,18.5,63.3z"/>
	<path fill="#FFFFFF" d="M15.3,66.5c1.2,0,2.2-1,2.2-2.2c0-1.2-1-2.2-2.2-2.2s-2.2,1-2.2,2.2C13.1,65.6,14.1,66.5,15.3,66.5z"/>
	<path fill="#FFFFFF" d="M61.1,14.2c1.2,0,2.2-1,2.2-2.2s-1-2.2-2.2-2.2c-1.2,0-2.2,1-2.2,2.2S59.9,14.2,61.1,14.2z"/>
	<path fill="#FFFFFF" d="M57.8,17.5c1.2,0,2.2-1,2.2-2.2s-1-2.2-2.2-2.2c-1.2,0-2.2,1-2.2,2.2S56.6,17.5,57.8,17.5z"/>
	<path fill="#FFFFFF" d="M15.3,60c1.2,0,2.2-1,2.2-2.2c0-1.2-1-2.2-2.2-2.2s-2.2,1-2.2,2.2C13.1,59,14.1,60,15.3,60z"/>
	<path fill="#FFFFFF" d="M12,63.3c1.2,0,2.2-1,2.2-2.2c0-1.2-1-2.2-2.2-2.2s-2.2,1-2.2,2.2C9.8,62.3,10.8,63.3,12,63.3z"/>
	<path fill="#FFFFFF" d="M57.8,10.9c1.2,0,2.2-1,2.2-2.2c0-1.2-1-2.2-2.2-2.2c-1.2,0-2.2,1-2.2,2.2C55.6,9.9,56.6,10.9,57.8,10.9z"/>
	<path fill="#FFFFFF" d="M54.5,14.2c1.2,0,2.2-1,2.2-2.2s-1-2.2-2.2-2.2c-1.2,0-2.2,1-2.2,2.2S53.3,14.2,54.5,14.2z"/>
	<path fill="#FFFFFF" d="M12,56.7c1.2,0,2.2-1,2.2-2.2c0-1.2-1-2.2-2.2-2.2s-2.2,1-2.2,2.2C9.8,55.7,10.8,56.7,12,56.7z"/>
	<path fill="#FFFFFF" d="M8.7,60c1.2,0,2.2-1,2.2-2.2c0-1.2-1-2.2-2.2-2.2c-1.2,0-2.2,1-2.2,2.2C6.5,59,7.5,60,8.7,60z"/>
	<path fill="#FFFFFF" d="M8.7,53.4c1.2,0,2.2-1,2.2-2.2c0-1.2-1-2.2-2.2-2.2c-1.2,0-2.2,1-2.2,2.2C6.5,52.5,7.5,53.4,8.7,53.4z"/>
	<path fill="#FFFFFF" d="M5.5,56.7c1.2,0,2.2-1,2.2-2.2c0-1.2-1-2.2-2.2-2.2s-2.2,1-2.2,2.2C3.3,55.7,4.2,56.7,5.5,56.7z"/>
	<path fill="#FFFFFF" d="M8.7,46.9c1.2,0,2.2-1,2.2-2.2c0-1.2-1-2.2-2.2-2.2c-1.2,0-2.2,1-2.2,2.2C6.5,45.9,7.5,46.9,8.7,46.9z"/>
	<path fill="#FFFFFF" d="M5.5,50.2c1.2,0,2.2-1,2.2-2.2c0-1.2-1-2.2-2.2-2.2s-2.2,1-2.2,2.2C3.3,49.2,4.2,50.2,5.5,50.2z"/>
	<path fill="#FFFFFF" d="M2.2,53.4c1.2,0,2.2-1,2.2-2.2c0-1.2-1-2.2-2.2-2.2c-1.2,0-2.2,1-2.2,2.2C0,52.5,1,53.4,2.2,53.4z"/>
	<path fill="#FFFFFF" d="M8.7,40.4c1.2,0,2.2-1,2.2-2.2c0-1.2-1-2.2-2.2-2.2c-1.2,0-2.2,1-2.2,2.2C6.5,39.4,7.5,40.4,8.7,40.4z"/>
	<path fill="#FFFFFF" d="M5.5,43.6c1.2,0,2.2-1,2.2-2.2c0-1.2-1-2.2-2.2-2.2s-2.2,1-2.2,2.2C3.3,42.6,4.2,43.6,5.5,43.6z"/>
	<path fill="#FFFFFF" d="M2.2,46.9c1.2,0,2.2-1,2.2-2.2c0-1.2-1-2.2-2.2-2.2c-1.2,0-2.2,1-2.2,2.2C0,45.9,1,46.9,2.2,46.9z"/>
	<path fill="#FFFFFF" d="M28.4,14.2c1.2,0,2.2-1,2.2-2.2s-1-2.2-2.2-2.2s-2.2,1-2.2,2.2S27.2,14.2,28.4,14.2z"/>
	<path fill="#FFFFFF" d="M25.1,17.5c1.2,0,2.2-1,2.2-2.2s-1-2.2-2.2-2.2c-1.2,0-2.2,1-2.2,2.2S23.9,17.5,25.1,17.5z"/>
	<path fill="#FFFFFF" d="M21.8,20.7c1.2,0,2.2-1,2.2-2.2c0-1.2-1-2.2-2.2-2.2c-1.2,0-2.2,1-2.2,2.2C19.6,19.7,20.6,20.7,21.8,20.7z"/>
	<path fill="#FFFFFF" d="M18.5,24c1.2,0,2.2-1,2.2-2.2c0-1.2-1-2.2-2.2-2.2c-1.2,0-2.2,1-2.2,2.2C16.4,23,17.3,24,18.5,24z"/>
	<path fill="#FFFFFF" d="M15.3,27.3c1.2,0,2.2-1,2.2-2.2c0-1.2-1-2.2-2.2-2.2s-2.2,1-2.2,2.2C13.1,26.3,14.1,27.3,15.3,27.3z"/>
	<path fill="#FFFFFF" d="M12,30.5c1.2,0,2.2-1,2.2-2.2s-1-2.2-2.2-2.2s-2.2,1-2.2,2.2S10.8,30.5,12,30.5z"/>
	<path fill="#FFFFFF" d="M8.7,33.8c1.2,0,2.2-1,2.2-2.2c0-1.2-1-2.2-2.2-2.2c-1.2,0-2.2,1-2.2,2.2C6.5,32.8,7.5,33.8,8.7,33.8z"/>
	<path fill="#FFFFFF" d="M5.5,37.1c1.2,0,2.2-1,2.2-2.2c0-1.2-1-2.2-2.2-2.2s-2.2,1-2.2,2.2C3.3,36.1,4.2,37.1,5.5,37.1z"/>
	<path fill="#FFFFFF" d="M2.2,40.4c1.2,0,2.2-1,2.2-2.2c0-1.2-1-2.2-2.2-2.2C1,36,0,37,0,38.2C0,39.4,1,40.4,2.2,40.4z"/>
	<path fill="#FFFFFF" d="M25.1,10.9c1.2,0,2.2-1,2.2-2.2c0-1.2-1-2.2-2.2-2.2c-1.2,0-2.2,1-2.2,2.2C22.9,9.9,23.9,10.9,25.1,10.9z"/>
	<path fill="#FFFFFF" d="M21.8,14.2c1.2,0,2.2-1,2.2-2.2s-1-2.2-2.2-2.2c-1.2,0-2.2,1-2.2,2.2S20.6,14.2,21.8,14.2z"/>
	<path fill="#FFFFFF" d="M18.5,17.5c1.2,0,2.2-1,2.2-2.2s-1-2.2-2.2-2.2c-1.2,0-2.2,1-2.2,2.2S17.3,17.5,18.5,17.5z"/>
	<path fill="#FFFFFF" d="M15.3,20.7c1.2,0,2.2-1,2.2-2.2c0-1.2-1-2.2-2.2-2.2s-2.2,1-2.2,2.2C13.1,19.7,14.1,20.7,15.3,20.7z"/>
	<path fill="#FFFFFF" d="M12,24c1.2,0,2.2-1,2.2-2.2c0-1.2-1-2.2-2.2-2.2s-2.2,1-2.2,2.2C9.8,23,10.8,24,12,24z"/>
	<path fill="#FFFFFF" d="M8.7,27.3c1.2,0,2.2-1,2.2-2.2c0-1.2-1-2.2-2.2-2.2c-1.2,0-2.2,1-2.2,2.2C6.5,26.3,7.5,27.3,8.7,27.3z"/>
	<path fill="#FFFFFF" d="M5.5,30.5c1.2,0,2.2-1,2.2-2.2s-1-2.2-2.2-2.2s-2.2,1-2.2,2.2S4.2,30.5,5.5,30.5z"/>
	<path fill="#FFFFFF" d="M2.2,33.8c1.2,0,2.2-1,2.2-2.2c0-1.2-1-2.2-2.2-2.2c-1.2,0-2.2,1-2.2,2.2C0,32.8,1,33.8,2.2,33.8z"/>
	<path fill="#FFFFFF" d="M54.5,7.6c1.2,0,2.2-1,2.2-2.2s-1-2.2-2.2-2.2c-1.2,0-2.2,1-2.2,2.2S53.3,7.6,54.5,7.6z"/>
	<path fill="#FFFFFF" d="M51.3,10.9c1.2,0,2.2-1,2.2-2.2c0-1.2-1-2.2-2.2-2.2c-1.2,0-2.2,1-2.2,2.2C49.1,9.9,50.1,10.9,51.3,10.9z"/>
	<path fill="#FFFFFF" d="M51.3,4.4c1.2,0,2.2-1,2.2-2.2c0-1.2-1-2.2-2.2-2.2c-1.2,0-2.2,1-2.2,2.2C49.1,3.4,50.1,4.4,51.3,4.4z"/>
	<path fill="#FFFFFF" d="M48,7.6c1.2,0,2.2-1,2.2-2.2s-1-2.2-2.2-2.2c-1.2,0-2.2,1-2.2,2.2S46.8,7.6,48,7.6z"/>
	<path fill="#FFFFFF" d="M44.7,10.9c1.2,0,2.2-1,2.2-2.2c0-1.2-1-2.2-2.2-2.2c-1.2,0-2.2,1-2.2,2.2C42.5,9.9,43.5,10.9,44.7,10.9z"/>
	<path fill="#FFFFFF" d="M44.7,4.4c1.2,0,2.2-1,2.2-2.2c0-1.2-1-2.2-2.2-2.2c-1.2,0-2.2,1-2.2,2.2C42.5,3.4,43.5,4.4,44.7,4.4z"/>
	<path fill="#FFFFFF" d="M41.4,7.6c1.2,0,2.2-1,2.2-2.2s-1-2.2-2.2-2.2c-1.2,0-2.2,1-2.2,2.2S40.2,7.6,41.4,7.6z"/>
	<path fill="#FFFFFF" d="M38.2,10.9c1.2,0,2.2-1,2.2-2.2c0-1.2-1-2.2-2.2-2.2c-1.2,0-2.2,1-2.2,2.2C36,9.9,37,10.9,38.2,10.9z"/>
	<path fill="#FFFFFF" d="M38.2,4.4c1.2,0,2.2-1,2.2-2.2c0-1.2-1-2.2-2.2-2.2C37,0,36,1,36,2.2C36,3.4,37,4.4,38.2,4.4z"/>
	<path fill="#FFFFFF" d="M34.9,7.6c1.2,0,2.2-1,2.2-2.2s-1-2.2-2.2-2.2c-1.2,0-2.2,1-2.2,2.2S33.7,7.6,34.9,7.6z"/>
	<path fill="#FFFFFF" d="M31.6,10.9c1.2,0,2.2-1,2.2-2.2c0-1.2-1-2.2-2.2-2.2c-1.2,0-2.2,1-2.2,2.2C29.4,9.9,30.4,10.9,31.6,10.9z"/>
	<path fill="#FFFFFF" d="M31.6,4.4c1.2,0,2.2-1,2.2-2.2c0-1.2-1-2.2-2.2-2.2c-1.2,0-2.2,1-2.2,2.2C29.4,3.4,30.4,4.4,31.6,4.4z"/>
	<path fill="#FFFFFF" d="M28.4,7.6c1.2,0,2.2-1,2.2-2.2s-1-2.2-2.2-2.2s-2.2,1-2.2,2.2S27.2,7.6,28.4,7.6z"/>
	<path fill="#FFFFFF" d="M57.8,50.2c1.2,0,2.2-1,2.2-2.2c0-1.2-1-2.2-2.2-2.2c-1.2,0-2.2,1-2.2,2.2C55.6,49.2,56.6,50.2,57.8,50.2z"/>
	<path fill="#FFFFFF" d="M54.5,53.4c1.2,0,2.2-1,2.2-2.2c0-1.2-1-2.2-2.2-2.2c-1.2,0-2.2,1-2.2,2.2C52.3,52.5,53.3,53.4,54.5,53.4z"/>
	<path fill="#FFFFFF" d="M51.3,56.7c1.2,0,2.2-1,2.2-2.2c0-1.2-1-2.2-2.2-2.2c-1.2,0-2.2,1-2.2,2.2C49.1,55.7,50.1,56.7,51.3,56.7z"/>
	<path fill="#FFFFFF" d="M48,60c1.2,0,2.2-1,2.2-2.2c0-1.2-1-2.2-2.2-2.2c-1.2,0-2.2,1-2.2,2.2C45.8,59,46.8,60,48,60z"/>
	<path fill="#FFFFFF" d="M57.8,43.6c1.2,0,2.2-1,2.2-2.2c0-1.2-1-2.2-2.2-2.2c-1.2,0-2.2,1-2.2,2.2C55.6,42.6,56.6,43.6,57.8,43.6z"/>
	<path fill="#FFFFFF" d="M54.5,46.9c1.2,0,2.2-1,2.2-2.2c0-1.2-1-2.2-2.2-2.2c-1.2,0-2.2,1-2.2,2.2C52.3,45.9,53.3,46.9,54.5,46.9z"/>
	<path fill="#FFFFFF" d="M51.3,50.2c1.2,0,2.2-1,2.2-2.2c0-1.2-1-2.2-2.2-2.2c-1.2,0-2.2,1-2.2,2.2C49.1,49.2,50.1,50.2,51.3,50.2z"/>
	<path fill="#FFFFFF" d="M48,53.4c1.2,0,2.2-1,2.2-2.2c0-1.2-1-2.2-2.2-2.2c-1.2,0-2.2,1-2.2,2.2C45.8,52.5,46.8,53.4,48,53.4z"/>
	<path fill="#FFFFFF" d="M44.7,56.7c1.2,0,2.2-1,2.2-2.2c0-1.2-1-2.2-2.2-2.2c-1.2,0-2.2,1-2.2,2.2C42.5,55.7,43.5,56.7,44.7,56.7z"/>
	<path fill="#FFFFFF" d="M41.4,60c1.2,0,2.2-1,2.2-2.2c0-1.2-1-2.2-2.2-2.2c-1.2,0-2.2,1-2.2,2.2C39.3,59,40.2,60,41.4,60z"/>
	<path fill="#FFFFFF" d="M57.8,37.1c1.2,0,2.2-1,2.2-2.2c0-1.2-1-2.2-2.2-2.2c-1.2,0-2.2,1-2.2,2.2C55.6,36.1,56.6,37.1,57.8,37.1z"/>
	<path fill="#FFFFFF" d="M54.5,40.4c1.2,0,2.2-1,2.2-2.2c0-1.2-1-2.2-2.2-2.2c-1.2,0-2.2,1-2.2,2.2C52.3,39.4,53.3,40.4,54.5,40.4z"/>
	<path fill="#FFFFFF" d="M51.3,43.6c1.2,0,2.2-1,2.2-2.2c0-1.2-1-2.2-2.2-2.2c-1.2,0-2.2,1-2.2,2.2C49.1,42.6,50.1,43.6,51.3,43.6z"/>
	<path fill="#FFFFFF" d="M48,46.9c1.2,0,2.2-1,2.2-2.2c0-1.2-1-2.2-2.2-2.2c-1.2,0-2.2,1-2.2,2.2C45.8,45.9,46.8,46.9,48,46.9z"/>
	<path fill="#FFFFFF" d="M44.7,50.2c1.2,0,2.2-1,2.2-2.2c0-1.2-1-2.2-2.2-2.2c-1.2,0-2.2,1-2.2,2.2C42.5,49.2,43.5,50.2,44.7,50.2z"/>
	<path fill="#FFFFFF" d="M41.4,53.4c1.2,0,2.2-1,2.2-2.2c0-1.2-1-2.2-2.2-2.2c-1.2,0-2.2,1-2.2,2.2C39.3,52.5,40.2,53.4,41.4,53.4z"/>
	<path fill="#FFFFFF" d="M38.2,56.7c1.2,0,2.2-1,2.2-2.2c0-1.2-1-2.2-2.2-2.2c-1.2,0-2.2,1-2.2,2.2C36,55.7,37,56.7,38.2,56.7z"/>
	<path fill="#FFFFFF" d="M34.9,60c1.2,0,2.2-1,2.2-2.2c0-1.2-1-2.2-2.2-2.2c-1.2,0-2.2,1-2.2,2.2C32.7,59,33.7,60,34.9,60z"/>
	<path fill="#FFFFFF" d="M54.5,33.8c1.2,0,2.2-1,2.2-2.2c0-1.2-1-2.2-2.2-2.2c-1.2,0-2.2,1-2.2,2.2C52.3,32.8,53.3,33.8,54.5,33.8z"/>
	<path fill="#FFFFFF" d="M51.3,37.1c1.2,0,2.2-1,2.2-2.2c0-1.2-1-2.2-2.2-2.2c-1.2,0-2.2,1-2.2,2.2C49.1,36.1,50.1,37.1,51.3,37.1z"/>
	<path fill="#FFFFFF" d="M48,40.4c1.2,0,2.2-1,2.2-2.2c0-1.2-1-2.2-2.2-2.2c-1.2,0-2.2,1-2.2,2.2C45.8,39.4,46.8,40.4,48,40.4z"/>
	<path fill="#FFFFFF" d="M44.7,43.6c1.2,0,2.2-1,2.2-2.2c0-1.2-1-2.2-2.2-2.2c-1.2,0-2.2,1-2.2,2.2C42.5,42.6,43.5,43.6,44.7,43.6z"/>
	<path fill="#FFFFFF" d="M41.4,46.9c1.2,0,2.2-1,2.2-2.2c0-1.2-1-2.2-2.2-2.2c-1.2,0-2.2,1-2.2,2.2C39.3,45.9,40.2,46.9,41.4,46.9z"/>
	<path fill="#FFFFFF" d="M38.2,50.2c1.2,0,2.2-1,2.2-2.2c0-1.2-1-2.2-2.2-2.2c-1.2,0-2.2,1-2.2,2.2C36,49.2,37,50.2,38.2,50.2z"/>
	<path fill="#FFFFFF" d="M34.9,53.4c1.2,0,2.2-1,2.2-2.2c0-1.2-1-2.2-2.2-2.2c-1.2,0-2.2,1-2.2,2.2C32.7,52.5,33.7,53.4,34.9,53.4z"/>
	<path fill="#FFFFFF" d="M31.6,56.7c1.2,0,2.2-1,2.2-2.2c0-1.2-1-2.2-2.2-2.2c-1.2,0-2.2,1-2.2,2.2C29.4,55.7,30.4,56.7,31.6,56.7z"/>
	<path fill="#FFFFFF" d="M51.3,30.5c1.2,0,2.2-1,2.2-2.2s-1-2.2-2.2-2.2c-1.2,0-2.2,1-2.2,2.2S50.1,30.5,51.3,30.5z"/>
	<path fill="#FFFFFF" d="M48,33.8c1.2,0,2.2-1,2.2-2.2c0-1.2-1-2.2-2.2-2.2c-1.2,0-2.2,1-2.2,2.2C45.8,32.8,46.8,33.8,48,33.8z"/>
	<path fill="#FFFFFF" d="M44.7,37.1c1.2,0,2.2-1,2.2-2.2c0-1.2-1-2.2-2.2-2.2c-1.2,0-2.2,1-2.2,2.2C42.5,36.1,43.5,37.1,44.7,37.1z"/>
	<path fill="#FFFFFF" d="M41.4,40.4c1.2,0,2.2-1,2.2-2.2c0-1.2-1-2.2-2.2-2.2c-1.2,0-2.2,1-2.2,2.2C39.3,39.4,40.2,40.4,41.4,40.4z"/>
	<path fill="#FFFFFF" d="M38.2,43.6c1.2,0,2.2-1,2.2-2.2c0-1.2-1-2.2-2.2-2.2c-1.2,0-2.2,1-2.2,2.2C36,42.6,37,43.6,38.2,43.6z"/>
	<path fill="#FFFFFF" d="M34.9,46.9c1.2,0,2.2-1,2.2-2.2c0-1.2-1-2.2-2.2-2.2c-1.2,0-2.2,1-2.2,2.2C32.7,45.9,33.7,46.9,34.9,46.9z"/>
	<path fill="#FFFFFF" d="M31.6,50.2c1.2,0,2.2-1,2.2-2.2c0-1.2-1-2.2-2.2-2.2c-1.2,0-2.2,1-2.2,2.2C29.4,49.2,30.4,50.2,31.6,50.2z"/>
	<path fill="#FFFFFF" d="M28.4,53.4c1.2,0,2.2-1,2.2-2.2c0-1.2-1-2.2-2.2-2.2s-2.2,1-2.2,2.2C26.2,52.5,27.2,53.4,28.4,53.4z"/>
	<path fill="#FFFFFF" d="M48,27.3c1.2,0,2.2-1,2.2-2.2c0-1.2-1-2.2-2.2-2.2c-1.2,0-2.2,1-2.2,2.2C45.8,26.3,46.8,27.3,48,27.3z"/>
	<path fill="#FFFFFF" d="M44.7,30.5c1.2,0,2.2-1,2.2-2.2s-1-2.2-2.2-2.2c-1.2,0-2.2,1-2.2,2.2S43.5,30.5,44.7,30.5z"/>
	<path fill="#FFFFFF" d="M41.4,33.8c1.2,0,2.2-1,2.2-2.2c0-1.2-1-2.2-2.2-2.2c-1.2,0-2.2,1-2.2,2.2C39.3,32.8,40.2,33.8,41.4,33.8z"/>
	<path fill="#FFFFFF" d="M38.2,37.1c1.2,0,2.2-1,2.2-2.2c0-1.2-1-2.2-2.2-2.2c-1.2,0-2.2,1-2.2,2.2C36,36.1,37,37.1,38.2,37.1z"/>
	<path fill="#FFFFFF" d="M34.9,40.4c1.2,0,2.2-1,2.2-2.2c0-1.2-1-2.2-2.2-2.2c-1.2,0-2.2,1-2.2,2.2C32.7,39.4,33.7,40.4,34.9,40.4z"/>
	<path fill="#FFFFFF" d="M31.6,43.6c1.2,0,2.2-1,2.2-2.2c0-1.2-1-2.2-2.2-2.2c-1.2,0-2.2,1-2.2,2.2C29.4,42.6,30.4,43.6,31.6,43.6z"/>
	<path fill="#FFFFFF" d="M28.4,46.9c1.2,0,2.2-1,2.2-2.2c0-1.2-1-2.2-2.2-2.2s-2.2,1-2.2,2.2C26.2,45.9,27.2,46.9,28.4,46.9z"/>
	<path fill="#FFFFFF" d="M25.1,50.2c1.2,0,2.2-1,2.2-2.2c0-1.2-1-2.2-2.2-2.2c-1.2,0-2.2,1-2.2,2.2C22.9,49.2,23.9,50.2,25.1,50.2z"/>
	<path fill="#FFFFFF" d="M41.4,27.3c1.2,0,2.2-1,2.2-2.2c0-1.2-1-2.2-2.2-2.2c-1.2,0-2.2,1-2.2,2.2C39.3,26.3,40.2,27.3,41.4,27.3z"/>
	<path fill="#FFFFFF" d="M38.2,30.5c1.2,0,2.2-1,2.2-2.2s-1-2.2-2.2-2.2c-1.2,0-2.2,1-2.2,2.2S37,30.5,38.2,30.5z"/>
	<path fill="#FFFFFF" d="M34.9,33.8c1.2,0,2.2-1,2.2-2.2c0-1.2-1-2.2-2.2-2.2c-1.2,0-2.2,1-2.2,2.2C32.7,32.8,33.7,33.8,34.9,33.8z"/>
	<path fill="#FFFFFF" d="M31.6,37.1c1.2,0,2.2-1,2.2-2.2c0-1.2-1-2.2-2.2-2.2c-1.2,0-2.2,1-2.2,2.2C29.4,36.1,30.4,37.1,31.6,37.1z"/>
	<path fill="#FFFFFF" d="M28.4,40.4c1.2,0,2.2-1,2.2-2.2c0-1.2-1-2.2-2.2-2.2s-2.2,1-2.2,2.2C26.2,39.4,27.2,40.4,28.4,40.4z"/>
	<path fill="#FFFFFF" d="M25.1,43.6c1.2,0,2.2-1,2.2-2.2c0-1.2-1-2.2-2.2-2.2c-1.2,0-2.2,1-2.2,2.2C22.9,42.6,23.9,43.6,25.1,43.6z"/>
	<path fill="#FFFFFF" d="M34.9,27.3c1.2,0,2.2-1,2.2-2.2c0-1.2-1-2.2-2.2-2.2c-1.2,0-2.2,1-2.2,2.2C32.7,26.3,33.7,27.3,34.9,27.3z"/>
	<path fill="#FFFFFF" d="M31.6,30.5c1.2,0,2.2-1,2.2-2.2s-1-2.2-2.2-2.2c-1.2,0-2.2,1-2.2,2.2S30.4,30.5,31.6,30.5z"/>
	<path fill="#FFFFFF" d="M28.4,33.8c1.2,0,2.2-1,2.2-2.2c0-1.2-1-2.2-2.2-2.2s-2.2,1-2.2,2.2C26.2,32.8,27.2,33.8,28.4,33.8z"/>
	<path fill="#FFFFFF" d="M25.1,37.1c1.2,0,2.2-1,2.2-2.2c0-1.2-1-2.2-2.2-2.2c-1.2,0-2.2,1-2.2,2.2C22.9,36.1,23.9,37.1,25.1,37.1z"/>
	<path fill="#FFFFFF" d="M263.4,15.5l-3.3,8.8h1.4l0.8-2h3.7l0.7,2h1.5l-3.3-8.8H263.4L263.4,15.5z M265.6,21.1h-2.8l0.5-1.3l0.9-2.8
		l0.9,2.8L265.6,21.1L265.6,21.1z"/>
	<path fill="#FFFFFF" d="M275,16.8v-1.3h-5.7v1.3h2.1V23h-2.1v1.3h5.7V23h-2.1v-6.3H275z"/>
</g>
</svg>
